<svg xmlns="http://www.w3.org/2000/svg"  viewBox="0 0 512 512">
 <defs><linearGradient id="s" x1="0" y1="0" x2="0" y2="1">
  <stop offset="0" stop-color="#221f4b"/><stop offset=".5" stop-color="#6b3f7a"/><stop offset="1" stop-color="#e6904b"/>
 </linearGradient></defs>
 <rect width="512" height="512" fill="url(#s)"/>
 <circle cx="372" cy="146" r="44" fill="#ffe6ad"/>
 <g fill="#fff" opacity=".9"><circle cx="120" cy="120" r="4"/><circle cx="190" cy="80" r="3"/><circle cx="300" cy="70" r="3.5"/><circle cx="440" cy="210" r="3"/><circle cx="90" cy="200" r="3"/></g>
 <path d="M0 372 L150 235 L280 372 Z" fill="#3a3e66"/>
 <path d="M210 372 L362 220 L512 372 Z" fill="#2b2f54"/>
 <rect y="372" width="512" height="140" fill="#21392e"/>
 <path d="M168 388 L256 300 L344 388 Z" fill="#f3e7cd"/>
 <path d="M256 300 L344 388 L300 388 Z" fill="#cdbd96"/>
 <path d="M232 388 L256 326 L280 388 Z" fill="#33271d"/>
 <line x1="256" y1="300" x2="256" y2="284" stroke="#f3e7cd" stroke-width="6" stroke-linecap="round"/>
</svg>
